<svg xmlns="http://www.w3.org/2000/svg" viewBox="0 0 512 512" role="img" aria-labelledby="title desc">
  <title id="title">Metropolitan Community College logo</title>
  <desc id="desc">Metropolitan Community College crest with crown, shield, and circular college name.</desc>
  <defs>
    <style>
      .ink{fill:#003f3b}
      .line{fill:none;stroke:#003f3b;stroke-width:14;stroke-linecap:round;stroke-linejoin:round}
      .fine{fill:none;stroke:#003f3b;stroke-width:8;stroke-linecap:round;stroke-linejoin:round}
      .text{font-family:Georgia,serif;font-size:29px;font-weight:700;letter-spacing:.6px;fill:#003f3b}
    </style>
    <path id="arc" d="M92 326a174 174 0 0 0 328 0"/>
  </defs>
  <path class="line" d="M90 330a178 178 0 0 1 48-122v92a118 118 0 0 0 236 0v-92a178 178 0 0 1 48 122"/>
  <path class="line" d="M146 184h220v116a110 110 0 0 1-220 0z"/>
  <path class="ink" d="M146 184h110v61h-110zM256 184h110v61H256zM146 245h110v111H146zM256 245h110v111H256z" opacity=".98"/>
  <path class="fine" d="M126 176l-22-87 52 33c36 23 73 9 83-33l17-72 17 72c10 42 47 56 83 33l52-33-22 87"/>
  <circle class="ink" cx="104" cy="89" r="16"/>
  <circle class="ink" cx="256" cy="17" r="16"/>
  <circle class="ink" cx="408" cy="89" r="16"/>
  <circle cx="256" cy="275" r="58" fill="#fff" stroke="#003f3b" stroke-width="12"/>
  <path class="fine" d="M222 292v-36l34 28 34-28v36"/>
  <circle class="ink" cx="256" cy="308" r="8"/>
  <path class="fine" d="M190 202h50M215 190v26M196 230l14-31 14 31M236 230l14-31 14 31"/>
  <path class="fine" d="M300 202c21-12 42-12 63 0v34c-21-12-42-12-63 0z"/>
  <circle class="fine" cx="205" cy="347" r="26"/>
  <path class="fine" d="M205 321v52M179 347h52"/>
  <path class="fine" d="M309 344l36-16 36 16-36 16zM321 356v18h48v-18"/>
  <path d="M92 330a174 174 0 0 0 328 0" fill="none" stroke="#003f3b" stroke-width="44" stroke-linecap="round"/>
  <text class="text">
    <textPath href="#arc" startOffset="50%" text-anchor="middle">Metropolitan Community College</textPath>
  </text>
</svg>
