<svg xmlns="http://www.w3.org/2000/svg" viewBox="0 0 256 256" role="img" aria-labelledby="title desc">
  <title id="title">BC Private Training Institutions Branch Designated logo</title>
  <desc id="desc">Designated BC Private Training Institutions Branch badge.</desc>
  <defs>
    <path id="topArc" d="M39 134a89 89 0 0 1 178 0"/>
    <path id="leftArc" d="M28 132a100 100 0 0 0 200 0"/>
  </defs>
  <circle cx="128" cy="128" r="122" fill="#fff"/>
  <circle cx="128" cy="128" r="116" fill="none" stroke="#1087bd" stroke-width="6"/>
  <circle cx="128" cy="128" r="99" fill="none" stroke="#f1c342" stroke-width="4" stroke-dasharray="2 8" stroke-linecap="round"/>
  <text font-family="Georgia,serif" font-size="27" font-weight="800" letter-spacing="3" fill="#273f7f">
    <textPath href="#topArc" startOffset="50%" text-anchor="middle">DESIGNATED</textPath>
  </text>
  <text font-family="Georgia,serif" font-size="16" font-weight="700" fill="#273f7f">
    <textPath href="#leftArc" startOffset="50%" text-anchor="middle">BC Private Training Institutions Branch</textPath>
  </text>
  <path d="M82 91h92v56H82z" fill="#f7f3df" stroke="#273f7f" stroke-width="3"/>
  <path d="M82 91h92v24H82z" fill="#d84a33"/>
  <path d="M82 91l92 56M174 91l-92 56" stroke="#fff" stroke-width="8"/>
  <path d="M82 91l92 56M174 91l-92 56" stroke="#273f7f" stroke-width="4"/>
  <path d="M128 91v56M82 119h92" stroke="#fff" stroke-width="14"/>
  <path d="M128 91v56M82 119h92" stroke="#d84a33" stroke-width="8"/>
  <path d="M72 156c20-26 39-24 57-7 17-20 36-22 61 8v28H72z" fill="#eeb53a" stroke="#8b6a24" stroke-width="3"/>
  <path d="M104 95c20 8 38 8 58 0" fill="none" stroke="#eeb53a" stroke-width="6"/>
</svg>
